# xmcd
#
# Track frame offsets:
#  150
#  17885
#  36742
#  56752
#  68865
#  85775
#  96942
#  113007
#  128172
#  145712
#
# Disc length: 2195 seconds
#
# Revision: 0
# Processed by: cddbd v1.5.1PL2 Copyright (c) Steve Scherf et al.
# Submitted via: Collectorz.com_Music_Collector 6.9
#
DISCID=8b08910a
DTITLE=luis Miranda (El pico de Oro) - Luis Miranda Con Nieves Quintero
DYEAR=1900
DGENRE=Aguinaldo - Musica Popular Boricua - Musica Puertorriqueña - Navidad
TTITLE0=El Cuatro Puertorriqueño
TTITLE1=Angusti, Dolor y Pena
TTITLE2=La Muerte Del Ruiseñor
TTITLE3=Lo Que Produce Mi Tierra
TTITLE4=La Cordillera Central
TTITLE5=Sol y Luna
TTITLE6=El Blanco y El De Color
TTITLE7=Quiero Volver a Mi Tierra
TTITLE8=Un Pueblo Que Me Sonrie
TTITLE9=Una Mujer Que Fue Fue Mia
EXTD=
EXTT0=
EXTT1=
EXTT2=
EXTT3=
EXTT4=
EXTT5=
EXTT6=
EXTT7=
EXTT8=
EXTT9=
PLAYORDER=
